<svg xmlns="http://www.w3.org/2000/svg" viewBox="0 0 1440 320">
  <path
    fill="#f9e2af"
    fill-opacity="1"
    d="M0,64L26.7,74.7C53.3,85,107,107,160,106.7C213.3,107,267,85,320,96C373.3,107,427,149,480,186.7C533.3,224,587,256,640,250.7C693.3,245,747,203,800,202.7C853.3,203,907,245,960,256C1013.3,267,1067,245,1120,245.3C1173.3,245,1227,267,1280,261.3C1333.3,256,1387,224,1413,208L1440,192L1440,320L1413.3,320C1386.7,320,1333,320,1280,320C1226.7,320,1173,320,1120,320C1066.7,320,1013,320,960,320C906.7,320,853,320,800,320C746.7,320,693,320,640,320C586.7,320,533,320,480,320C426.7,320,373,320,320,320C266.7,320,213,320,160,320C106.7,320,53,320,27,320L0,320Z"
  ></path>
</svg>
